<mxfile host="app.diagrams.net" modified="2023-04-11T18:54:03.303Z" agent="Mozilla/5.0 (Macintosh; Intel Mac OS X 10_15_7) AppleWebKit/537.36 (KHTML, like Gecko) Chrome/107.0.0.0 Safari/537.36" version="21.1.6" etag="Dq-OFAZCmfiqEWHHAZwW" type="github">
  <diagram name="Page-1" id="kk9KVqbXdMdGgp-NKnqb">
    <mxGraphModel>
      <root>
        <mxCell id="0" />
        <mxCell id="1" parent="0" />
      </root>
    </mxGraphModel>
  </diagram>
</mxfile>
